<?xml version="1.0" encoding="UTF-8"?>
<svg version="1.1" xmlns="http://www.w3.org/2000/svg" width="2000" height="2000">
    <path d="M0 0 C506.22 0 1012.44 0 1534 0 C1532.63329151 3.41677121 1531.45324209 6.11970212 1529.6015625 9.1953125 C1529.12879883 9.98309082 1528.65603516 10.77086914 1528.16894531 11.58251953 C1527.65944336 12.42153809 1527.14994141 13.26055664 1526.625 14.125 C1526.0897168 15.01171387 1525.55443359 15.89842773 1525.00292969 16.81201172 C1521.00798323 23.40355636 1516.91696992 29.93056352 1512.78149414 36.43457031 C1506.38767572 46.50444916 1500.17718739 56.68748181 1493.93554688 66.85205078 C1491.07068912 71.51141958 1488.19312601 76.16286797 1485.3125 80.8125 C1484.78793213 81.65925293 1484.26336426 82.50600586 1483.72290039 83.37841797 C1482.67424843 85.07085951 1481.62550233 86.76324273 1480.57666016 88.45556641 C1477.88291445 92.80276643 1475.19160083 97.15147177 1472.5 101.5 C1471.41667787 103.25000693 1470.33334454 105.00000694 1469.25 106.75 C1468.71375 107.61625 1468.1775 108.4825 1467.625 109.375 C1387.1875 239.3125 1387.1875 239.3125 1267.75 432.25 C1267.21391113 433.1160083 1266.67782227 433.9820166 1266.12548828 434.87426758 C1265.04059456 436.6267506 1263.95563347 438.37919191 1262.87060547 440.1315918 C1260.18559597 444.46826457 1257.50170709 448.80562229 1254.8203125 453.14453125 C1249.13477983 462.34158831 1243.42606961 471.52343195 1237.6875 480.6875 C1231.01936995 491.33889676 1224.42606157 502.03521034 1217.84765625 512.7421875 C1212.77788364 520.99272156 1207.67797502 529.22451306 1202.57666016 537.45556641 C1199.88291445 541.80276643 1197.19160083 546.15147177 1194.5 550.5 C1193.41667787 552.25000693 1192.33334454 554.00000694 1191.25 555.75 C1190.71375 556.61625 1190.1775 557.4825 1189.625 558.375 C1140.33333333 638 1091.04166667 717.625 1041.75 797.25 C1041.21366943 798.11641113 1040.67733887 798.98282227 1040.12475586 799.87548828 C1039.04234841 801.62393007 1037.95982903 803.37230257 1036.87719727 805.12060547 C1034.15377183 809.51888226 1031.4323556 813.91837913 1028.71484375 818.3203125 C1028.17230957 819.19824463 1027.62977539 820.07617676 1027.07080078 820.98071289 C1025.99092253 822.72901802 1024.9124473 824.47819063 1023.83544922 826.22827148 C1021.10314785 830.65583596 1018.32989175 835.04908048 1015.48046875 839.40234375 C1014.917229 840.26972168 1014.35398926 841.13709961 1013.77368164 842.03076172 C1012.69885389 843.68128204 1011.6138471 845.32523172 1010.51733398 846.96142578 C1010.03981689 847.69731934 1009.5622998 848.43321289 1009.0703125 849.19140625 C1008.64508301 849.83279541 1008.21985352 850.47418457 1007.78173828 851.13500977 C1006.76625233 853.55765099 1007.07196496 854.5702624 1008 857 C1008.68252276 858.33366515 1009.4195344 859.64020874 1010.1953125 860.921875 C1010.65583008 861.68709473 1011.11634766 862.45231445 1011.59082031 863.24072266 C1012.09709961 864.06878418 1012.60337891 864.8968457 1013.125 865.75 C1013.65706055 866.62833496 1014.18912109 867.50666992 1014.73730469 868.41162109 C1019.47363981 876.20211346 1024.30641952 883.93235738 1029.15112305 891.65576172 C1033.7826628 899.04022451 1038.37309994 906.44885992 1042.9375 913.875 C1043.93172974 915.49245117 1043.93172974 915.49245117 1044.94604492 917.14257812 C1047.63857537 921.52475055 1050.32951009 925.90790188 1053.02050781 930.29101562 C1060.79462523 942.95075399 1068.60499493 955.58533667 1076.49633789 968.17236328 C1081.30928417 975.86269013 1086.03261437 983.60473215 1090.73535156 991.36279297 C1095.50548649 999.21893499 1100.3670235 1007.01532988 1105.24951172 1014.80200195 C1111.27242965 1024.41487755 1117.21385799 1034.07701004 1123.15234375 1043.7421875 C1128.22211636 1051.99272156 1133.32202498 1060.22451306 1138.42333984 1068.45556641 C1141.66163266 1073.68156327 1144.89664306 1078.90959293 1148.13232422 1084.13720703 C1150.80203244 1088.45018186 1153.47242352 1092.76273007 1156.14453125 1097.07421875 C1161.39296865 1105.54465417 1166.63040572 1114.02157913 1171.84692383 1122.51171875 C1177.73485754 1132.09458426 1183.65008045 1141.65860056 1189.625 1151.1875 C1195.06809226 1159.86931031 1200.42363616 1168.60010659 1205.73535156 1177.36279297 C1210.50548649 1185.21893499 1215.3670235 1193.01532988 1220.24951172 1200.80200195 C1226.27242965 1210.41487755 1232.21385799 1220.07701004 1238.15234375 1229.7421875 C1241.65300955 1235.43916143 1245.16635743 1241.12816348 1248.6875 1246.8125 C1249.21448486 1247.66328125 1249.74146973 1248.5140625 1250.28442383 1249.390625 C1251.85600154 1251.92725761 1253.427929 1254.46367308 1255 1257 C1257.10463298 1260.39554465 1259.2088707 1263.79133344 1261.3125 1267.1875 C1261.84270752 1268.0434375 1262.37291504 1268.899375 1262.91918945 1269.78125 C1266.57311309 1275.68411874 1270.21220135 1281.5959783 1273.84643555 1287.51098633 C1279.69524709 1297.02999926 1285.56820886 1306.53244519 1291.5 1316 C1300.0902084 1329.71248858 1308.55454627 1343.50160509 1317.02050781 1357.29101562 C1324.79462523 1369.95075399 1332.60499493 1382.58533667 1340.49633789 1395.17236328 C1345.30928417 1402.86269013 1350.03261437 1410.60473215 1354.73535156 1418.36279297 C1359.50548649 1426.21893499 1364.3670235 1434.01532988 1369.24951172 1441.80200195 C1375.27242965 1451.41487755 1381.21385799 1461.07701004 1387.15234375 1470.7421875 C1390.65300955 1476.43916143 1394.16635743 1482.12816348 1397.6875 1487.8125 C1398.21448486 1488.66328125 1398.74146973 1489.5140625 1399.28442383 1490.390625 C1400.85600154 1492.92725761 1402.427929 1495.46367308 1404 1498 C1406.10463298 1501.39554465 1408.2088707 1504.79133344 1410.3125 1508.1875 C1410.84270752 1509.0434375 1411.37291504 1509.899375 1411.91918945 1510.78125 C1415.5732674 1516.68436804 1419.21248566 1522.596492 1422.84692383 1528.51171875 C1428.73485754 1538.09458426 1434.65008045 1547.65860056 1440.625 1557.1875 C1446.06809226 1565.86931031 1451.42363616 1574.60010659 1456.73535156 1583.36279297 C1461.50548649 1591.21893499 1466.3670235 1599.01532988 1471.24951172 1606.80200195 C1477.27242965 1616.41487755 1483.21385799 1626.07701004 1489.15234375 1635.7421875 C1494.22211636 1643.99272156 1499.32202498 1652.22451306 1504.42333984 1660.45556641 C1506.02899091 1663.04678588 1507.63379304 1665.63852908 1509.23828125 1668.23046875 C1509.77727051 1669.10106934 1510.31625977 1669.97166992 1510.87158203 1670.86865234 C1511.9473176 1672.60692489 1513.02252303 1674.34552564 1514.09716797 1676.08447266 C1516.95337448 1680.70437145 1519.82190713 1685.31606412 1522.70703125 1689.91796875 C1523.3103125 1690.88347656 1523.91359375 1691.84898438 1524.53515625 1692.84375 C1525.69949893 1694.70669829 1526.86734205 1696.56746443 1528.0390625 1698.42578125 C1528.81830078 1699.67488281 1528.81830078 1699.67488281 1529.61328125 1700.94921875 C1530.07516846 1701.68487061 1530.53705566 1702.42052246 1531.01293945 1703.1784668 C1532 1705 1532 1705 1532 1707 C1025.78 1707 519.56 1707 -2 1707 C-0.55537804 1703.3884451 0.74075894 1700.57279944 2.73046875 1697.32421875 C3.27815918 1696.42662842 3.82584961 1695.52903809 4.39013672 1694.60424805 C5.27983154 1693.16045776 5.27983154 1693.16045776 6.1875 1691.6875 C6.80898926 1690.67276611 7.43047852 1689.65803223 8.07080078 1688.61254883 C13.08265905 1680.44677373 18.1570309 1672.32029716 23.24633789 1664.20263672 C29.27086062 1654.58855752 35.21287928 1644.92458286 41.15234375 1635.2578125 C46.22211636 1627.00727844 51.32202498 1618.77548694 56.42333984 1610.54443359 C59.11708555 1606.19723357 61.80839917 1601.84852823 64.5 1597.5 C65.58332213 1595.74999307 66.66665546 1593.99999306 67.75 1592.25 C68.28625 1591.38375 68.8225 1590.5175 69.375 1589.625 C149.8125 1459.6875 149.8125 1459.6875 490.25 909.75 C490.78633057 908.88358887 491.32266113 908.01717773 491.87524414 907.12451172 C492.95765159 905.37606993 494.04017097 903.62769743 495.12280273 901.87939453 C497.84622817 897.48111774 500.5676444 893.08162087 503.28515625 888.6796875 C503.82769043 887.80175537 504.37022461 886.92382324 504.92919922 886.01928711 C506.00907747 884.27098198 507.0875527 882.52180937 508.16455078 880.77172852 C510.89685215 876.34416404 513.67010825 871.95091952 516.51953125 867.59765625 C517.082771 866.73027832 517.64601074 865.86290039 518.22631836 864.96923828 C519.30114611 863.31871796 520.3861529 861.67476828 521.48266602 860.03857422 C521.96018311 859.30268066 522.4377002 858.56678711 522.9296875 857.80859375 C523.35491699 857.16720459 523.78014648 856.52581543 524.21826172 855.86499023 C525.23374767 853.44234901 524.92803504 852.4297376 524 850 C523.31747724 848.66633485 522.5804656 847.35979126 521.8046875 846.078125 C521.34416992 845.31290527 520.88365234 844.54768555 520.40917969 843.75927734 C519.90290039 842.93121582 519.39662109 842.1031543 518.875 841.25 C518.34293945 840.37166504 517.81087891 839.49333008 517.26269531 838.58837891 C512.52636019 830.79788654 507.69358048 823.06764262 502.84887695 815.34423828 C498.2173372 807.95977549 493.62690006 800.55114008 489.0625 793.125 C488.39968018 792.04669922 487.73686035 790.96839844 487.05395508 789.85742188 C484.36142463 785.47524945 481.67048991 781.09209812 478.97949219 776.70898438 C471.20537477 764.04924601 463.39500507 751.41466333 455.50366211 738.82763672 C450.69071583 731.13730987 445.96738563 723.39526785 441.26464844 715.63720703 C436.49451351 707.78106501 431.6329765 699.98467012 426.75048828 692.19799805 C420.72757035 682.58512245 414.78614201 672.92298996 408.84765625 663.2578125 C403.77788364 655.00727844 398.67797502 646.77548694 393.57666016 638.54443359 C390.33836734 633.31843673 387.10335694 628.09040707 383.86767578 622.86279297 C381.19796756 618.54981814 378.52757648 614.23726993 375.85546875 609.92578125 C370.60703135 601.45534583 365.36959428 592.97842087 360.15307617 584.48828125 C354.26514246 574.90541574 348.34991955 565.34139944 342.375 555.8125 C336.93190774 547.13068969 331.57636384 538.39989341 326.26464844 529.63720703 C321.49451351 521.78106501 316.6329765 513.98467012 311.75048828 506.19799805 C305.72757035 496.58512245 299.78614201 486.92298996 293.84765625 477.2578125 C290.34699045 471.56083857 286.83364257 465.87183652 283.3125 460.1875 C282.78551514 459.33671875 282.25853027 458.4859375 281.71557617 457.609375 C280.14399846 455.07274239 278.572071 452.53632692 277 450 C274.89536702 446.60445535 272.7911293 443.20866656 270.6875 439.8125 C270.15729248 438.9565625 269.62708496 438.100625 269.08081055 437.21875 C265.42688691 431.31588126 261.78779865 425.4040217 258.15356445 419.48901367 C252.30475291 409.97000074 246.43179114 400.46755481 240.5 391 C231.9097916 377.28751142 223.44545373 363.49839491 214.97949219 349.70898438 C207.20537477 337.04924601 199.39500507 324.41466333 191.50366211 311.82763672 C186.69071583 304.13730987 181.96738563 296.39526785 177.26464844 288.63720703 C172.49451351 280.78106501 167.6329765 272.98467012 162.75048828 265.19799805 C156.72757035 255.58512245 150.78614201 245.92298996 144.84765625 236.2578125 C141.34699045 230.56083857 137.83364257 224.87183652 134.3125 219.1875 C133.52202271 217.91132813 133.52202271 217.91132813 132.71557617 216.609375 C131.14399846 214.07274239 129.572071 211.53632692 128 209 C125.89536702 205.60445535 123.7911293 202.20866656 121.6875 198.8125 C121.15729248 197.9565625 120.62708496 197.100625 120.08081055 196.21875 C116.4267326 190.31563196 112.78751434 184.403508 109.15307617 178.48828125 C103.26514246 168.90541574 97.34991955 159.34139944 91.375 149.8125 C85.93190774 141.13068969 80.57636384 132.39989341 75.26464844 123.63720703 C70.49451351 115.78106501 65.6329765 107.98467012 60.75048828 100.19799805 C54.72757035 90.58512245 48.78614201 80.92298996 42.84765625 71.2578125 C37.77788364 63.00727844 32.67797502 54.77548694 27.57666016 46.54443359 C25.97100909 43.95321412 24.36620696 41.36147092 22.76171875 38.76953125 C22.22272949 37.89893066 21.68374023 37.02833008 21.12841797 36.13134766 C20.0526824 34.39307511 18.97747697 32.65447436 17.90283203 30.91552734 C15.04662552 26.29562855 12.17809287 21.68393588 9.29296875 17.08203125 C8.38804687 15.63376953 8.38804687 15.63376953 7.46484375 14.15625 C6.30050107 12.29330171 5.13265795 10.43253557 3.9609375 8.57421875 C3.44144531 7.74148437 2.92195312 6.90875 2.38671875 6.05078125 C1.69388794 4.94730347 1.69388794 4.94730347 0.98706055 3.8215332 C0 2 0 2 0 0 Z " fill="#66DAE0" transform="translate(234,147)"/>
    <path d="M0 0 C0.66 0 1.32 0 2 0 C3.27416992 1.73046875 3.27416992 1.73046875 4.73046875 4.1875 C5.27815918 5.10120361 5.82584961 6.01490723 6.39013672 6.95629883 C7.27983154 8.46293091 7.27983154 8.46293091 8.1875 10 C9.46350559 12.12970858 10.74089208 14.25859029 12.01953125 16.38671875 C12.67904785 17.48677246 13.33856445 18.58682617 14.01806641 19.72021484 C17.07985898 24.78699501 20.2248659 29.80033487 23.375 34.8125 C28.62555102 43.18276537 33.83053291 51.57941786 39 60 C44.13071688 68.35618206 49.29324462 76.69098328 54.5 85 C61.10770127 95.54600277 67.63744641 106.13866886 74.15234375 116.7421875 C79.22211636 124.99272156 84.32202498 133.22451306 89.42333984 141.45556641 C92.11708555 145.80276643 94.80839917 150.15147177 97.5 154.5 C98.58332213 156.25000693 99.66665546 158.00000694 100.75 159.75 C137.58333333 219.25 174.41666667 278.75 211.25 338.25 C211.78681396 339.11713623 212.32362793 339.98427246 212.87670898 340.87768555 C213.95443545 342.61867817 215.03207292 344.35972589 216.10961914 346.10083008 C218.90299105 350.61411072 221.69814254 355.12627533 224.49609375 359.63671875 C225.07230469 360.56613281 225.64851562 361.49554687 226.2421875 362.453125 C227.33144818 364.20999706 228.42124651 365.96653594 229.51171875 367.72265625 C230.011875 368.52960938 230.51203125 369.3365625 231.02734375 370.16796875 C231.51444824 370.95220215 232.00155273 371.73643555 232.50341797 372.54443359 C233.5703926 374.29510747 234.61384372 376.0602091 235.64111328 377.83447266 C236.4394458 379.20998291 236.4394458 379.20998291 237.25390625 380.61328125 C237.73287354 381.45286377 238.21184082 382.29244629 238.70532227 383.1574707 C239.13256592 383.76550537 239.55980957 384.37354004 240 385 C240.66 385 241.32 385 242 385 C243.17850891 383.48721035 243.17850891 383.48721035 244.29296875 381.46875 C244.75026367 380.69063965 245.20755859 379.9125293 245.67871094 379.11083984 C246.17661133 378.2492627 246.67451172 377.38768555 247.1875 376.5 C248.27790953 374.64723634 249.37044883 372.79572486 250.46484375 370.9453125 C251.04218262 369.96852539 251.61952148 368.99173828 252.21435547 367.98535156 C255.15431969 363.07013657 258.20138048 358.22331043 261.25 353.375 C266.54326213 344.94279737 271.79185779 336.48504762 277 328 C282.13064548 319.64377454 287.29324504 311.30901604 292.5 303 C299.10770127 292.45399723 305.63744641 281.86133114 312.15234375 271.2578125 C317.22211636 263.00727844 322.32202498 254.77548694 327.42333984 246.54443359 C330.11708555 242.19723357 332.80839917 237.84852823 335.5 233.5 C336.58332213 231.74999307 337.66665546 229.99999306 338.75 228.25 C339.28625 227.38375 339.8225 226.5175 340.375 225.625 C376.66666667 167 412.95833333 108.375 449.25 49.75 C449.7867334 48.88286377 450.3234668 48.01572754 450.87646484 47.12231445 C451.95453401 45.38103011 453.03298153 43.63997996 454.11181641 41.89916992 C456.90391861 37.39271528 459.68835056 32.88177288 462.4609375 28.36328125 C463.03263672 27.43386719 463.60433594 26.50445313 464.19335938 25.546875 C465.2726728 23.79189381 466.34969873 22.03550258 467.42382812 20.27734375 C471.06776987 14.36007388 474.96147304 8.65468701 479 3 C482.07013595 5.8652643 484.25933228 8.7533789 486.43359375 12.33984375 C487.07578857 13.39212158 487.7179834 14.44439941 488.37963867 15.52856445 C489.05873291 16.65351318 489.73782715 17.77846191 490.4375 18.9375 C491.15343062 20.11390422 491.86999115 21.2899253 492.5871582 22.46557617 C494.0387465 24.84588294 495.48797645 27.22759945 496.93554688 29.61035156 C499.82817571 34.35979087 502.75502147 39.08759939 505.6875 43.8125 C506.74747261 45.52338994 507.80736886 47.23432718 508.8671875 48.9453125 C509.91141189 50.63023711 510.95568255 52.31513306 512 54 C514.10463298 57.39554465 516.2088707 60.79133344 518.3125 64.1875 C518.84270752 65.0434375 519.37291504 65.899375 519.91918945 66.78125 C523.5732674 72.68436804 527.21248566 78.596492 530.84692383 84.51171875 C536.73485754 94.09458426 542.65008045 103.65860056 548.625 113.1875 C554.06809226 121.86931031 559.42363616 130.60010659 564.73535156 139.36279297 C569.50548649 147.21893499 574.3670235 155.01532988 579.24951172 162.80200195 C585.27242965 172.41487755 591.21385799 182.07701004 597.15234375 191.7421875 C602.22211636 199.99272156 607.32202498 208.22451306 612.42333984 216.45556641 C615.66163266 221.68156327 618.89664306 226.90959293 622.13232422 232.13720703 C624.80203244 236.45018186 627.47242352 240.76273007 630.14453125 245.07421875 C635.39296865 253.54465417 640.63040572 262.02157913 645.84692383 270.51171875 C651.73485754 280.09458426 657.65008045 289.65860056 663.625 299.1875 C669.06809226 307.86931031 674.42363616 316.60010659 679.73535156 325.36279297 C684.50548649 333.21893499 689.3670235 341.01532988 694.24951172 348.80200195 C700.27242965 358.41487755 706.21385799 368.07701004 712.15234375 377.7421875 C715.65300955 383.43916143 719.16635743 389.12816348 722.6875 394.8125 C723.21448486 395.66328125 723.74146973 396.5140625 724.28442383 397.390625 C725.85600154 399.92725761 727.427929 402.46367308 729 405 C731.10463298 408.39554465 733.2088707 411.79133344 735.3125 415.1875 C735.84270752 416.0434375 736.37291504 416.899375 736.91918945 417.78125 C740.57311309 423.68411874 744.21220135 429.5959783 747.84643555 435.51098633 C753.69524709 445.02999926 759.56820886 454.53244519 765.5 464 C774.0902084 477.71248858 782.55454627 491.50160509 791.02050781 505.29101562 C798.79462523 517.95075399 806.60499493 530.58533667 814.49633789 543.17236328 C819.30928417 550.86269013 824.03261437 558.60473215 828.73535156 566.36279297 C833.50548649 574.21893499 838.3670235 582.01532988 843.24951172 589.80200195 C849.27242965 599.41487755 855.21385799 609.07701004 861.15234375 618.7421875 C864.65300955 624.43916143 868.16635743 630.12816348 871.6875 635.8125 C872.21448486 636.66328125 872.74146973 637.5140625 873.28442383 638.390625 C874.85600154 640.92725761 876.427929 643.46367308 878 646 C880.10463298 649.39554465 882.2088707 652.79133344 884.3125 656.1875 C884.84270752 657.0434375 885.37291504 657.899375 885.91918945 658.78125 C889.5732674 664.68436804 893.21248566 670.596492 896.84692383 676.51171875 C902.73485754 686.09458426 908.65008045 695.65860056 914.625 705.1875 C920.06809226 713.86931031 925.42363616 722.60010659 930.73535156 731.36279297 C935.50548649 739.21893499 940.3670235 747.01532988 945.24951172 754.80200195 C951.27242965 764.41487755 957.21385799 774.07701004 963.15234375 783.7421875 C968.22211636 791.99272156 973.32202498 800.22451306 978.42333984 808.45556641 C980.02899091 811.04678588 981.63379304 813.63852908 983.23828125 816.23046875 C983.77727051 817.10106934 984.31625977 817.97166992 984.87158203 818.86865234 C985.9473176 820.60692489 987.02252303 822.34552564 988.09716797 824.08447266 C990.95337448 828.70437145 993.82190713 833.31606412 996.70703125 837.91796875 C997.3103125 838.88347656 997.91359375 839.84898437 998.53515625 840.84375 C999.69949893 842.70669829 1000.86734205 844.56746443 1002.0390625 846.42578125 C1002.81830078 847.67488281 1002.81830078 847.67488281 1003.61328125 848.94921875 C1004.07516846 849.68487061 1004.53705566 850.42052246 1005.01293945 851.1784668 C1006 853 1006 853 1006 855 C499.78 855 -6.44 855 -528 855 C-526.55537804 851.3884451 -525.25924106 848.57279944 -523.26953125 845.32421875 C-522.72184082 844.42662842 -522.17415039 843.52903809 -521.60986328 842.60424805 C-521.0167334 841.64172119 -520.42360352 840.67919434 -519.8125 839.6875 C-518.88026611 838.16539917 -518.88026611 838.16539917 -517.92919922 836.61254883 C-512.91734095 828.44677373 -507.8429691 820.32029716 -502.75366211 812.20263672 C-496.72913938 802.58855752 -490.78712072 792.92458286 -484.84765625 783.2578125 C-479.77788364 775.00727844 -474.67797502 766.77548694 -469.57666016 758.54443359 C-466.88291445 754.19723357 -464.19160083 749.84852823 -461.5 745.5 C-460.41667787 743.74999307 -459.33334454 741.99999306 -458.25 740.25 C-457.71375 739.38375 -457.1775 738.5175 -456.625 737.625 C-376.1875 607.6875 -376.1875 607.6875 -22.75 36.75 C-22.21286377 35.88205811 -21.67572754 35.01411621 -21.12231445 34.11987305 C-20.04887581 32.38637868 -18.97450832 30.65345911 -17.89916992 28.92114258 C-15.03119899 24.29812515 -12.18438922 19.66350578 -9.36328125 15.01171875 C-8.47189453 13.54992187 -8.47189453 13.54992187 -7.5625 12.05859375 C-6.4146812 10.17545353 -5.27254573 8.28883486 -4.13671875 6.3984375 C-3.36714844 5.13966797 -3.36714844 5.13966797 -2.58203125 3.85546875 C-2.13061768 3.10934326 -1.6792041 2.36321777 -1.21411133 1.59448242 C-0.81345459 1.06830322 -0.41279785 0.54212402 0 0 Z " fill="#FE9A9A" transform="translate(760,999)"/>
    <path d="M0 0 C3.44563992 1.14854664 3.65753451 1.61953369 5.390625 4.62890625 C5.84469727 5.40379395 6.29876953 6.17868164 6.76660156 6.97705078 C7.25612305 7.83024902 7.74564453 8.68344727 8.25 9.5625 C9.33122826 11.40618405 10.41465653 13.24857924 11.5 15.08984375 C12.07105469 16.06034668 12.64210938 17.03084961 13.23046875 18.03076172 C16.15882912 22.94449224 19.20432262 27.78342044 22.25 32.625 C27.58278755 41.12090967 32.87411823 49.64071117 38.125 58.1875 C44.5368475 68.62325469 50.97108724 79.04475334 57.42333984 89.45556641 C60.11708555 93.80276643 62.80839917 98.15147177 65.5 102.5 C66.58332213 104.25000693 67.66665546 106.00000694 68.75 107.75 C122.44482422 194.48779297 176.13964844 281.22558594 241 386 C237.03454882 392.99539099 232.87526131 399.84021132 228.5625 406.625 C223.66268728 414.33478049 218.84314335 422.09076629 214.0625 429.875 C213.38219727 430.98270752 212.70189453 432.09041504 212.00097656 433.23168945 C210.6457999 435.43845603 209.29065617 437.64524283 207.93554688 439.85205078 C205.07068912 444.51141958 202.19312601 449.16286797 199.3125 453.8125 C198.78793213 454.65925293 198.26336426 455.50600586 197.72290039 456.37841797 C196.67424843 458.07085951 195.62550233 459.76324273 194.57666016 461.45556641 C191.88291445 465.80276643 189.19160083 470.15147177 186.5 474.5 C185.41667787 476.25000693 184.33334454 478.00000694 183.25 479.75 C182.71375 480.61625 182.1775 481.4825 181.625 482.375 C107.6875 601.8125 107.6875 601.8125 33.75 721.25 C33.2132666 722.11705566 32.6765332 722.98411133 32.12353516 723.87744141 C31.04517437 725.61935894 29.96672451 727.36122134 28.88818359 729.10302734 C26.1030202 733.60123045 23.31962658 738.10051465 20.5390625 742.6015625 C9.57205281 760.34812164 9.57205281 760.34812164 4 769 C0.55436008 767.85145336 0.34246549 767.38046631 -1.390625 764.37109375 C-1.84469727 763.59620605 -2.29876953 762.82131836 -2.76660156 762.02294922 C-3.25612305 761.16975098 -3.74564453 760.31655273 -4.25 759.4375 C-5.33122826 757.59381595 -6.41465653 755.75142076 -7.5 753.91015625 C-8.07105469 752.93965332 -8.64210938 751.96915039 -9.23046875 750.96923828 C-12.15882856 746.05550869 -15.20429073 741.21655858 -18.25 736.375 C-23.54344325 727.94291231 -28.79185901 719.48504562 -34 711 C-39.13064548 702.64377454 -44.29324504 694.30901604 -49.5 686 C-56.10770127 675.45399723 -62.63744641 664.86133114 -69.15234375 654.2578125 C-74.22211636 646.00727844 -79.32202498 637.77548694 -84.42333984 629.54443359 C-87.11708555 625.19723357 -89.80839917 620.84852823 -92.5 616.5 C-93.58332213 614.74999307 -94.66665546 612.99999306 -95.75 611.25 C-206.25 432.75000001 -206.25 432.75000001 -207.87646484 430.12255859 C-208.95482563 428.38064106 -210.03327549 426.63877866 -211.11181641 424.89697266 C-213.8969798 420.39876955 -216.68037342 415.89948535 -219.4609375 411.3984375 C-220.31341064 410.01990601 -220.31341064 410.01990601 -221.18310547 408.61352539 C-222.29617101 406.81190113 -223.40723097 405.00903599 -224.51611328 403.20483398 C-226.75253178 399.57541263 -228.99147674 395.96320834 -231.40625 392.44921875 C-232.0559375 391.49660156 -232.705625 390.54398438 -233.375 389.5625 C-233.91898438 388.80066406 -234.46296875 388.03882813 -235.0234375 387.25390625 C-236.43718161 383.99098485 -236.03944954 382.40481111 -235 379 C-233.43537864 376.02040024 -231.60859513 373.24069397 -229.75 370.4375 C-228.64868598 368.73635872 -227.54846353 367.03451037 -226.44921875 365.33203125 C-225.87864746 364.45369629 -225.30807617 363.57536133 -224.72021484 362.67041016 C-221.94234293 358.35812475 -219.25290003 353.99219798 -216.5625 349.625 C-215.47015222 347.85670897 -214.37770372 346.08848016 -213.28515625 344.3203125 C-212.74262207 343.44149414 -212.20008789 342.56267578 -211.64111328 341.65722656 C-208.93106446 337.26922131 -206.21526293 332.88477995 -203.5 328.5 C-202.41663865 326.75001735 -201.33330532 325.00001734 -200.25 323.25 C-146.625 236.625 -93 150 -24.75 39.75 C-24.21286377 38.8822998 -23.67572754 38.01459961 -23.12231445 37.12060547 C-22.04800029 35.38521221 -20.97361969 33.64986008 -19.89916992 31.91455078 C-17.05227357 27.31641724 -14.20681565 22.71740099 -11.36328125 18.1171875 C-10.76902344 17.15619141 -10.17476562 16.19519531 -9.5625 15.20507812 C-8.4201497 13.3576835 -7.27820415 11.51003853 -6.13671875 9.66210938 C-5.62367188 8.83259766 -5.110625 8.00308594 -4.58203125 7.1484375 C-3.90491089 6.05281494 -3.90491089 6.05281494 -3.21411133 4.93505859 C-2.17074581 3.27213578 -1.08895488 1.63343232 0 0 Z " fill="#66B1B6" transform="translate(998,616)"/>
    <path d="M0 0 C4.28760645 1.40867501 6.91917898 3.48207035 10.1875 6.5625 C13.34188937 9.64185798 13.34188937 9.64185798 17 12 C15.47920927 15.50827915 13.4004327 17.95271646 10.8125 20.75 C8.0290666 23.78606987 5.25889162 26.82380967 2.5625 29.9375 C-1.87450341 35.03377514 -6.44259466 40.01161267 -11 45 C-9.4054117 49.40410102 -7.15546221 53.33965328 -4.8125 57.375 C15.60652013 93.29712091 18.99253667 133.92343068 8.5390625 173.7890625 C2.82617735 193.99867597 -7.09627778 211.29836215 -22 226 C-23.21816406 227.23363281 -23.21816406 227.23363281 -24.4609375 228.4921875 C-34.85559071 238.47243593 -47.6661361 244.86189169 -61 250 C-61.92554688 250.37898438 -62.85109375 250.75796875 -63.8046875 251.1484375 C-85.45454729 259.30546683 -110.69071285 258.88829468 -133 254 C-134.175625 253.75636719 -135.35125 253.51273438 -136.5625 253.26171875 C-150.08873573 249.95843665 -163.21726648 242.68161848 -174.1875 234.1796875 C-176.05862409 232.72725192 -176.05862409 232.72725192 -179 233 C-180.60285079 234.42260671 -180.60285079 234.42260671 -182.125 236.375 C-184.86005407 239.64090844 -187.63760036 242.8445219 -190.5 246 C-193.87217838 249.73471633 -197.20183832 253.50164386 -200.4921875 257.30859375 C-201.94138986 258.9342534 -203.444151 260.47675861 -205 262 C-208.67822053 260.38750996 -211.53024166 258.10253751 -214.625 255.5625 C-215.58664062 254.78003906 -216.54828125 253.99757813 -217.5390625 253.19140625 C-220 251 -220 251 -222 248 C-221.41883423 247.38125 -221.41883423 247.38125 -220.82592773 246.75 C-210.75031915 236.02211848 -210.75031915 236.02211848 -201 225 C-199.68878978 223.49887242 -198.37629134 221.99886909 -197.0625 220.5 C-196.18271484 219.49453125 -196.18271484 219.49453125 -195.28515625 218.46875 C-194.86105469 217.9840625 -194.43695312 217.499375 -194 217 C-195.70521651 212.23293065 -198.18837796 208.00521167 -200.6875 203.625 C-207.70270913 191.11686943 -213.61317229 179.04336138 -217 165 C-217.21398437 164.11699219 -217.42796875 163.23398437 -217.6484375 162.32421875 C-221.90518198 142.98379273 -221.82545009 120.39107461 -218 101 C-217.88172852 100.35514648 -217.76345703 99.71029297 -217.64160156 99.04589844 C-213.69614466 77.93318629 -204.31307043 58.75936172 -191 42 C-190.18789063 40.93652344 -190.18789063 40.93652344 -189.359375 39.8515625 C-172.07382978 18.46288281 -143.52633598 7.31628904 -117 4 C-86.61930563 1.61772925 -56.54121899 7.30855095 -32.25 26.625 C-31.69828125 27.11226562 -31.1465625 27.59953125 -30.578125 28.1015625 C-29.01039572 29.18711194 -29.01039572 29.18711194 -26.9921875 28.859375 C-24.5680187 27.81365512 -23.53715053 26.67136622 -21.875 24.625 C-18.99212673 21.17297579 -16.03902998 17.81614517 -13 14.5 C-9.3765856 10.52807399 -5.80002156 6.5223778 -2.27734375 2.4609375 C-1.54167701 1.61953273 -0.79030613 0.79030613 0 0 Z " fill="#000101" transform="translate(1103,838)"/>
    <path d="M0 0 C1.07644775 -0.0100708 2.15289551 -0.0201416 3.26196289 -0.03051758 C23.15310007 0.18405287 39.08425819 8.94928934 54.75 20.4375 C53.24523694 25.71931933 49.78536651 28.91554369 46.0625 32.75 C44.78169223 34.09423332 43.50173351 35.43927619 42.22265625 36.78515625 C41.61437988 37.42211426 41.00610352 38.05907227 40.37939453 38.71533203 C37.99172601 41.23894812 35.71913455 43.85214168 33.453125 46.484375 C31.25634095 49.00362276 29.00310381 51.46852996 26.75 53.9375 C23.29424587 57.72684126 19.8847711 61.54833698 16.51953125 65.41796875 C12.21130252 70.33486556 7.80313844 75.16389032 3.421875 80.015625 C0.02655062 83.7805085 -3.36058342 87.54943551 -6.6875 91.375 C-10.33937053 95.56914365 -14.09266184 99.66844292 -17.83984375 103.77734375 C-20.42238884 106.62777034 -22.95655103 109.51575892 -25.48046875 112.41796875 C-29.78869748 117.33486556 -34.19686156 122.16389032 -38.578125 127.015625 C-42.56704577 131.43871401 -46.52567907 135.88365005 -50.4375 140.375 C-53.26991589 143.59809394 -56.15263906 146.77558719 -59.02734375 149.9609375 C-62.13525101 153.4238781 -65.19850192 156.92484304 -68.25 160.4375 C-71.71502147 157.66970846 -73.06974507 153.78201056 -74.75 149.8125 C-75.04519531 149.13832031 -75.34039063 148.46414063 -75.64453125 147.76953125 C-88.45820235 118.02149307 -88.17456824 80.70442009 -76.9140625 50.46484375 C-69.00227137 30.61997922 -54.034616 16.07961626 -35.0625 6.75 C-23.32615419 1.78588735 -12.67417492 0.07655119 0 0 Z " fill="#65B0B5" transform="translate(1000.25,869.5625)"/>
    <path d="M0 0 C3 1 3 1 4.68359375 4.25390625 C5.2836267 5.68373963 5.86721295 7.12054449 6.4375 8.5625 C6.89709106 9.70900024 6.89709106 9.70900024 7.3659668 10.87866211 C19.19486714 41.26589011 20.37059983 78.2973262 7.55859375 108.55859375 C-1.31958678 128.16179438 -15.54950853 143.87747952 -35.5546875 152.5390625 C-56.1861707 160.25893915 -80.24420499 161.25122956 -100.69921875 152.45703125 C-108.43391588 148.80290947 -115.28290986 144.27771368 -122 139 C-120.64891034 136.03674056 -119.11293352 133.79214835 -116.9375 131.375 C-116.31488281 130.67890625 -115.69226563 129.9828125 -115.05078125 129.265625 C-114.37402344 128.51796875 -113.69726562 127.7703125 -113 127 C-111.93845703 125.81664062 -111.93845703 125.81664062 -110.85546875 124.609375 C-107.80112823 121.20734247 -104.73602973 117.81506648 -101.671875 114.421875 C-98.25694362 110.63525041 -94.85013474 106.84416383 -91.5 103 C-86.62856797 97.41020011 -81.6410485 91.92465102 -76.671875 86.421875 C-73.25694362 82.63525041 -69.85013474 78.84416383 -66.5 75 C-61.62856797 69.41020011 -56.6410485 63.92465102 -51.671875 58.421875 C-48.25694362 54.63525041 -44.85013474 50.84416383 -41.5 47 C-36.62856797 41.41020011 -31.6410485 35.92465102 -26.671875 30.421875 C-22.6866468 26.00288046 -18.73042571 21.56316987 -14.82421875 17.07421875 C-11.95736798 13.81448051 -9.03411516 10.60589216 -6.11328125 7.39453125 C-3.99127508 4.99011391 -1.98279012 2.51988903 0 0 Z " fill="#65B0B5" transform="translate(1068,909)"/>
    <path d="M0 0 C0.66 0 1.32 0 2 0 C0.24280722 5.10619548 -2.5870342 9.53393804 -5.375 14.125 C-6.1779248 15.4550708 -6.1779248 15.4550708 -6.99707031 16.81201172 C-10.99201677 23.40355636 -15.08303008 29.93056352 -19.21850586 36.43457031 C-25.61232428 46.50444916 -31.82281261 56.68748181 -38.06445312 66.85205078 C-40.92931088 71.51141958 -43.80687399 76.16286797 -46.6875 80.8125 C-47.21206787 81.65925293 -47.73663574 82.50600586 -48.27709961 83.37841797 C-49.32575157 85.07085951 -50.37449767 86.76324273 -51.42333984 88.45556641 C-54.11708555 92.80276643 -56.80839917 97.15147177 -59.5 101.5 C-60.58332213 103.25000693 -61.66665546 105.00000694 -62.75 106.75 C-63.554375 108.049375 -63.554375 108.049375 -64.375 109.375 C-118 196 -171.625 282.625 -264.25 432.25 C-264.78608887 433.1160083 -265.32217773 433.9820166 -265.87451172 434.87426758 C-266.95940544 436.6267506 -268.04436653 438.37919191 -269.12939453 440.1315918 C-271.81440403 444.46826457 -274.49829291 448.80562229 -277.1796875 453.14453125 C-282.86522017 462.34158831 -288.57393039 471.52343195 -294.3125 480.6875 C-300.98063005 491.33889676 -307.57393843 502.03521034 -314.15234375 512.7421875 C-319.22211636 520.99272156 -324.32202498 529.22451306 -329.42333984 537.45556641 C-332.11708555 541.80276643 -334.80839917 546.15147177 -337.5 550.5 C-338.58332213 552.25000693 -339.66665546 554.00000694 -340.75 555.75 C-341.28625 556.61625 -341.8225 557.4825 -342.375 558.375 C-391.66666667 638 -440.95833333 717.625 -490.25 797.25 C-490.78633057 798.11641113 -491.32266113 798.98282227 -491.87524414 799.87548828 C-492.95765159 801.62393007 -494.04017097 803.37230257 -495.12280273 805.12060547 C-497.84622817 809.51888226 -500.5676444 813.91837913 -503.28515625 818.3203125 C-505.97588912 822.67761279 -508.67213263 827.03144555 -511.37402344 831.38183594 C-512.48509764 833.17089896 -513.59507414 834.96064404 -514.70410156 836.75097656 C-516.35998607 839.42062931 -518.02273857 842.0858761 -519.6875 844.75 C-520.19289307 845.56678223 -520.69828613 846.38356445 -521.21899414 847.22509766 C-521.68684326 847.97065918 -522.15469238 848.7162207 -522.63671875 849.484375 C-523.25099731 850.47002441 -523.25099731 850.47002441 -523.87768555 851.47558594 C-525 853 -525 853 -527 854 C-525.26843347 849.00548152 -522.5425661 844.68194863 -519.8125 840.1875 C-519.28495117 839.31367676 -518.75740234 838.43985352 -518.21386719 837.53955078 C-513.49993281 829.76114772 -508.68181811 822.04866741 -503.84863281 814.34399414 C-499.21730958 806.95952846 -494.62684142 799.55104467 -490.0625 792.125 C-489.39968018 791.04669922 -488.73686035 789.96839844 -488.05395508 788.85742188 C-486.03531078 785.57201896 -484.0174952 782.28610867 -482 779 C-473.55361875 765.24248196 -465.07879283 751.50533381 -456.50366211 737.82763672 C-452.28278716 731.08334621 -448.12425544 724.30374498 -444 717.5 C-438.65699192 708.68569039 -433.2260372 699.93049303 -427.75048828 691.19799805 C-421.72757035 681.58512245 -415.78614201 671.92298996 -409.84765625 662.2578125 C-406.34699045 656.56083857 -402.83364257 650.87183652 -399.3125 645.1875 C-398.78551514 644.33671875 -398.25853027 643.4859375 -397.71557617 642.609375 C-395.62300315 639.23182077 -393.52975327 635.85468626 -391.43652344 632.47753906 C-389.85319044 629.92272733 -388.27021895 627.36769219 -386.6875 624.8125 C-385.89218872 623.52859375 -385.89218872 623.52859375 -385.08081055 622.21875 C-381.4267326 616.31563196 -377.78751434 610.403508 -374.15307617 604.48828125 C-368.26514246 594.90541574 -362.34991955 585.34139944 -356.375 575.8125 C-351.5248126 568.07638146 -346.73316451 560.30825647 -342 552.5 C-336.65699192 543.68569039 -331.2260372 534.93049303 -325.75048828 526.19799805 C-319.72757035 516.58512245 -313.78614201 506.92298996 -307.84765625 497.2578125 C-302.77788364 489.00727844 -297.67797502 480.77548694 -292.57666016 472.54443359 C-289.88291446 468.19723359 -287.19157322 463.8485453 -284.5 459.5 C-281.2862934 454.30788832 -278.07219597 449.11602221 -274.85546875 443.92578125 C-269.60703135 435.45534583 -264.36959428 426.97842087 -259.15307617 418.48828125 C-253.26514246 408.90541574 -247.34991955 399.34139944 -241.375 389.8125 C-236.5248126 382.07638146 -231.73316451 374.30825647 -227 366.5 C-221.65699192 357.68569039 -216.2260372 348.93049303 -210.75048828 340.19799805 C-204.72757035 330.58512245 -198.78614201 320.92298996 -192.84765625 311.2578125 C-189.34699045 305.56083857 -185.83364257 299.87183652 -182.3125 294.1875 C-181.78551514 293.33671875 -181.25853027 292.4859375 -180.71557617 291.609375 C-178.62300315 288.23182077 -176.52975327 284.85468626 -174.43652344 281.47753906 C-172.85319044 278.92272733 -171.27021895 276.36769219 -169.6875 273.8125 C-169.15729248 272.9565625 -168.62708496 272.100625 -168.08081055 271.21875 C-164.4267326 265.31563196 -160.78751434 259.403508 -157.15307617 253.48828125 C-151.26514246 243.90541574 -145.34991955 234.34139944 -139.375 224.8125 C-134.5248126 217.07638146 -129.73316451 209.30825647 -125 201.5 C-119.65699192 192.68569039 -114.2260372 183.93049303 -108.75048828 175.19799805 C-102.72757035 165.58512245 -96.78614201 155.92298996 -90.84765625 146.2578125 C-85.77788364 138.00727844 -80.67797502 129.77548694 -75.57666016 121.54443359 C-72.88291446 117.19723359 -70.19157322 112.8485453 -67.5 108.5 C-64.2862934 103.30788832 -61.07219597 98.11602221 -57.85546875 92.92578125 C-52.60703135 84.45534583 -47.36959428 75.97842087 -42.15307617 67.48828125 C-35.65948899 56.91968865 -29.12271842 46.3803154 -22.53076172 35.87280273 C-17.43376587 27.73238917 -12.43320886 19.53531964 -7.47802734 11.30786133 C-6.93355957 10.40704834 -6.3890918 9.50623535 -5.828125 8.578125 C-5.3527832 7.78825195 -4.87744141 6.99837891 -4.38769531 6.18457031 C-3.01334339 4.02100574 -1.65529267 1.95889322 0 0 Z " fill="#05C3CC" transform="translate(1766,147)"/>
    <path d="M0 0 C0.33 0.66 0.66 1.32 1 2 C0.06640625 3.95751953 0.06640625 3.95751953 -1.4375 6.3828125 C-2.2737793 7.7440625 -2.2737793 7.7440625 -3.12695312 9.1328125 C-3.74505859 10.12023437 -4.36316406 11.10765625 -5 12.125 C-5.63357422 13.15109375 -6.26714844 14.1771875 -6.91992188 15.234375 C-8.93728804 18.49548609 -10.96684849 21.7487103 -13 25 C-13.63164063 26.0115918 -14.26328125 27.02318359 -14.9140625 28.06542969 C-17.40313881 32.05029506 -19.89406513 36.03397831 -22.390625 40.01416016 C-26.64907736 46.80986705 -30.84351953 53.6415141 -35 60.5 C-40.34290788 69.31436941 -45.77396381 78.06950858 -51.24951172 86.80200195 C-57.27242965 96.41487755 -63.21385799 106.07701004 -69.15234375 115.7421875 C-74.22211636 123.99272156 -79.32202498 132.22451306 -84.42333984 140.45556641 C-87.11708554 144.80276641 -89.80842678 149.1514547 -92.5 153.5 C-95.7137066 158.69211168 -98.92780403 163.88397779 -102.14453125 169.07421875 C-107.39296865 177.54465417 -112.63040572 186.02157913 -117.84692383 194.51171875 C-123.73485754 204.09458426 -129.65008045 213.65860056 -135.625 223.1875 C-140.4751874 230.92361854 -145.26683549 238.69174353 -150 246.5 C-155.34300808 255.31430961 -160.7739628 264.06950697 -166.24951172 272.80200195 C-172.27242965 282.41487755 -178.21385799 292.07701004 -184.15234375 301.7421875 C-187.65300955 307.43916143 -191.16635743 313.12816348 -194.6875 318.8125 C-195.21448486 319.66328125 -195.74146973 320.5140625 -196.28442383 321.390625 C-198.37699685 324.76817923 -200.47024673 328.14531374 -202.56347656 331.52246094 C-204.14680956 334.07727267 -205.72978105 336.63230781 -207.3125 339.1875 C-207.84270752 340.0434375 -208.37291504 340.899375 -208.91918945 341.78125 C-212.57311309 347.68411874 -216.21220135 353.5959783 -219.84643555 359.51098633 C-225.69524709 369.02999926 -231.56820886 378.53244519 -237.5 388 C-245.406834 400.62162288 -253.20751885 413.30755849 -261 426 C-269.44638125 439.75751804 -277.92120717 453.49466619 -286.49633789 467.17236328 C-290.71721284 473.91665379 -294.87574456 480.69625502 -299 487.5 C-304.34300808 496.31430961 -309.7739628 505.06950697 -315.24951172 513.80200195 C-321.27242965 523.41487755 -327.21385799 533.07701004 -333.15234375 542.7421875 C-336.65300955 548.43916143 -340.16635743 554.12816348 -343.6875 559.8125 C-344.21448486 560.66328125 -344.74146973 561.5140625 -345.28442383 562.390625 C-347.37699685 565.76817923 -349.47024673 569.14531374 -351.56347656 572.52246094 C-353.14680956 575.07727267 -354.72978105 577.63230781 -356.3125 580.1875 C-357.10781128 581.47140625 -357.10781128 581.47140625 -357.91918945 582.78125 C-361.5732674 588.68436804 -365.21248566 594.596492 -368.84692383 600.51171875 C-374.73485754 610.09458426 -380.65008045 619.65860056 -386.625 629.1875 C-391.4751874 636.92361854 -396.26683549 644.69174353 -401 652.5 C-406.34300808 661.31430961 -411.7739628 670.06950697 -417.24951172 678.80200195 C-423.27242965 688.41487755 -429.21385799 698.07701004 -435.15234375 707.7421875 C-440.22211636 715.99272156 -445.32202498 724.22451306 -450.42333984 732.45556641 C-453.11708554 736.80276641 -455.80842678 741.1514547 -458.5 745.5 C-461.7137066 750.69211168 -464.92780403 755.88397779 -468.14453125 761.07421875 C-473.39296865 769.54465417 -478.63040572 778.02157913 -483.84692383 786.51171875 C-490.34051101 797.08031135 -496.87728158 807.6196846 -503.46923828 818.12719727 C-508.56623413 826.26761083 -513.56679114 834.46468036 -518.52197266 842.69213867 C-519.33867432 844.04335815 -519.33867432 844.04335815 -520.171875 845.421875 C-520.6472168 846.21174805 -521.12255859 847.00162109 -521.61230469 847.81542969 C-522.98665661 849.97899426 -524.34470733 852.04110678 -526 854 C-526.66 854 -527.32 854 -528 854 C-526.70248409 850.54594161 -525.1955843 847.46886764 -523.26953125 844.32421875 C-522.72184082 843.42662842 -522.17415039 842.52903809 -521.60986328 841.60424805 C-521.0167334 840.64172119 -520.42360352 839.67919434 -519.8125 838.6875 C-518.88026611 837.16539917 -518.88026611 837.16539917 -517.92919922 835.61254883 C-512.91734095 827.44677373 -507.8429691 819.32029716 -502.75366211 811.20263672 C-496.72913938 801.58855752 -490.78712072 791.92458286 -484.84765625 782.2578125 C-479.77788364 774.00727844 -474.67797502 765.77548694 -469.57666016 757.54443359 C-466.88291445 753.19723357 -464.19160083 748.84852823 -461.5 744.5 C-460.41667787 742.74999307 -459.33334454 740.99999306 -458.25 739.25 C-457.71375 738.38375 -457.1775 737.5175 -456.625 736.625 C-403 650 -349.375 563.375 -35.75 56.75 C-34.94550415 55.4503833 -34.94550415 55.4503833 -34.12475586 54.12451172 C-33.04234841 52.37606993 -31.95982903 50.62769743 -30.87719727 48.87939453 C-28.15377183 44.48111774 -25.4323556 40.08162087 -22.71484375 35.6796875 C-17.26047896 26.8483482 -11.7841393 18.03162324 -6.25 9.25 C-5.73622803 8.43321777 -5.22245605 7.61643555 -4.69311523 6.77490234 C-4.22204346 6.02934082 -3.75097168 5.2837793 -3.265625 4.515625 C-2.85086914 3.85852539 -2.43611328 3.20142578 -2.00878906 2.52441406 C-1 1 -1 1 0 0 Z " fill="#FF5A5A" transform="translate(760,1000)"/>
</svg>